
<svg width="160" height="157" viewBox="0 0 160 157" fill="none" xmlns="http://www.w3.org/2000/svg">
    <path fill-rule="evenodd" fill="#00758F" clip-rule="evenodd" d="M146.589 121.008C137.936 120.791 131.235 121.656 125.615 124.043C123.993 124.693 121.402 124.693 121.18 126.753C122.051 127.618 122.155 129.026 122.917 130.224C124.211 132.392 126.477 135.314 128.535 136.836C130.805 138.571 133.076 140.299 135.457 141.816C139.671 144.429 144.429 145.94 148.531 148.542C150.918 150.058 153.288 152.008 155.674 153.638C156.859 154.504 157.609 155.916 159.129 156.452V156.124C158.367 155.151 158.155 153.742 157.402 152.652C156.323 151.576 155.239 150.594 154.156 149.515C151.019 145.288 147.122 141.606 142.916 138.571C139.454 136.18 131.882 132.927 130.482 128.929C130.482 128.929 130.369 128.814 130.263 128.707C132.642 128.487 135.457 127.618 137.726 126.961C141.396 125.988 144.748 126.208 148.531 125.235C150.264 124.799 151.994 124.253 153.731 123.72V122.737C151.775 120.791 150.375 118.185 148.321 116.344C142.812 111.576 136.751 106.919 130.482 103.01C127.126 100.842 122.802 99.4393 119.233 97.5921C117.942 96.9405 115.782 96.6195 115.022 95.5294C113.075 93.1455 111.989 90.006 110.587 87.1832C107.455 81.228 104.422 74.6179 101.724 68.3206C99.7788 64.0961 98.5892 59.8716 96.21 55.9667C85.0694 37.5356 72.9655 26.3768 54.3708 15.4265C50.3701 13.1475 45.614 12.1725 40.5368 10.9797C37.8296 10.8662 35.1294 10.6554 32.4268 10.5489C30.6944 9.78692 28.9619 7.72562 27.4513 6.75056C21.2862 2.85033 5.40099 -5.60328 0.857417 5.56011C-2.06229 12.6102 5.18154 19.5445 7.6693 23.1228C9.50565 25.6125 11.8872 28.4358 13.1784 31.2498C13.9361 33.0934 14.1532 35.0481 14.9132 36.9959C16.641 41.7647 18.2602 47.0777 20.5355 51.5246C21.7204 53.8012 23.0163 56.1891 24.5293 58.2388C25.4024 59.4385 26.9108 59.9735 27.2365 61.9306C25.7281 64.0961 25.6103 67.3478 24.7464 70.0599C20.8565 82.3095 22.3672 97.4844 27.8832 106.48C29.6087 109.189 33.7226 115.153 39.2364 112.872C44.101 110.924 43.02 104.745 44.4244 99.3282C44.7478 98.0182 44.5306 97.1588 45.1774 96.2927V96.5118C46.6904 99.5426 48.208 102.462 49.6124 105.507C52.9687 110.813 58.8012 116.343 63.6705 120.025C66.2576 121.984 68.3134 125.339 71.5565 126.535V126.207H71.344C70.6926 125.234 69.7224 124.798 68.8562 124.042C66.9112 122.09 64.7538 119.704 63.2339 117.537C58.695 111.469 54.6896 104.745 51.13 97.8082C49.3953 94.4399 47.8846 90.7579 46.4779 87.3996C45.8311 86.1049 45.8311 84.1481 44.7478 83.4993C43.1216 85.8814 40.7493 87.9441 39.562 90.8619C37.5062 95.5285 37.2914 101.272 36.5292 107.237C36.0995 107.35 36.3166 107.237 36.0995 107.452C32.6439 106.586 31.4543 103.009 30.1538 99.9841C26.9107 92.2776 26.3656 79.9208 29.1814 71.0311C29.9344 68.759 33.1868 61.6047 31.884 59.4369C31.2303 57.3687 29.0705 56.1875 27.8832 54.5547C26.4811 52.4957 24.9589 49.8994 23.9957 47.6181C21.3993 41.55 20.0943 34.8265 17.2923 28.7584C15.9942 25.9352 13.7189 23.0077 11.8872 20.4114C9.82906 17.4839 7.56074 15.4249 5.93688 11.9601C5.40096 10.765 4.64332 8.81257 5.50493 7.51558C5.71742 6.64706 6.15631 6.32047 7.02252 6.10276C8.42003 4.91002 12.4254 6.42471 13.8275 7.07552C17.8305 8.69676 21.1822 10.223 24.5292 12.4951C26.0445 13.5813 27.6661 15.6403 29.6087 16.1869H31.8839C35.3418 16.9396 39.2363 16.3976 42.4817 17.3773C48.208 19.2186 53.396 21.9284 58.0481 24.8559C72.2055 33.8537 83.882 46.6476 91.7703 61.929C93.0708 64.4187 93.6159 66.6977 94.8032 69.294C97.0739 74.6163 99.8873 80.0359 102.153 85.2338C104.422 90.3291 106.588 95.5277 109.836 99.7617C111.453 102.034 117.941 103.227 120.861 104.42C123.019 105.393 126.375 106.261 128.322 107.452C131.997 109.724 135.665 112.33 139.13 114.827C140.856 116.128 146.263 118.835 146.589 121.006" />
    <path fill-rule="evenodd" fill="#00758F" clip-rule="evenodd" d="M36.3143 26.7975C34.4803 26.7975 33.1867 27.0198 31.8817 27.3418V27.5594H32.0919C32.965 29.2895 34.4803 30.4916 35.5521 32.0063C36.4229 33.741 37.1805 35.4688 38.0444 37.2058C38.1507 37.0993 38.2546 36.9858 38.2546 36.9858C39.7791 35.9065 40.5345 34.1741 40.5345 31.5685C39.8808 30.8042 39.7791 30.0515 39.234 29.2895C38.5872 28.2079 37.1805 27.666 36.3143 26.7975Z" />
</svg>
